<svg width="32" height="32" viewBox="0 0 32 32" fill="none" xmlns="http://www.w3.org/2000/svg">
<path d="M8.53326 22.4C10.8897 22.4 12.7999 20.4898 12.7999 18.1334C12.7999 15.7769 10.8897 13.8667 8.53326 13.8667C6.17685 13.8667 4.2666 15.7769 4.2666 18.1334C4.2666 20.4898 6.17685 22.4 8.53326 22.4Z" fill="#412F86"/>
<path d="M18.304 24.5333C18.88 25.8453 19.2 27.2853 19.2 28.8H30.4C31.2853 28.8 32 28.0853 32 27.2V24.5333H18.304ZM13.6427 21.9733C12.4693 23.52 10.624 24.5333 8.53333 24.5333C6.44266 24.5333 4.59733 23.5306 3.424 21.9733C2.36057 22.7655 1.49712 23.7954 0.902604 24.9807C0.308092 26.166 -0.00100397 27.4739 2.4498e-06 28.8C2.4498e-06 30.56 1.44 32 3.2 32H13.8667C15.6267 32 17.0667 30.56 17.0667 28.8C17.0667 26.0053 15.712 23.5413 13.6427 21.9733ZM14.9333 18.1333C14.9333 18.8053 14.8267 19.456 14.6347 20.064C15.552 20.704 16.3626 21.504 17.0346 22.4H29.8666V2.66666C29.8666 1.95942 29.5857 1.28114 29.0856 0.781048C28.5855 0.280951 27.9072 0 27.2 0H10.1333C9.42608 0 8.74781 0.280951 8.24771 0.781048C7.74761 1.28114 7.46666 1.95942 7.46666 2.66666V11.8293C7.81866 11.7653 8.17066 11.7333 8.53333 11.7333C12.064 11.7333 14.9333 14.6027 14.9333 18.1333ZM17.0667 17.0666H18.1333V9.59999C18.1333 9.01332 18.6133 8.53332 19.2 8.53332C19.7866 8.53332 20.2666 9.01332 20.2666 9.59999V17.0666H23.4666V4.26666C23.4666 3.68 23.9466 3.2 24.5333 3.2C25.12 3.2 25.6 3.68 25.6 4.26666V17.0666H26.6666C27.2533 17.0666 27.7333 17.5466 27.7333 18.1333C27.7333 18.72 27.2533 19.2 26.6666 19.2H17.0667C16.48 19.2 16 18.72 16 18.1333C16 17.5466 16.48 17.0666 17.0667 17.0666Z" fill="#422985"/>
</svg>
