<?xml version="1.0" encoding="utf-8"?>
<!-- Generator: Adobe Illustrator 19.2.1, SVG Export Plug-In . SVG Version: 6.00 Build 0)  -->
<svg version="1.1" id="layer" xmlns="http://www.w3.org/2000/svg" xmlns:xlink="http://www.w3.org/1999/xlink" x="0px" y="0px"
	 viewBox="0 0 652 652" style="enable-background:new 0 0 652 652;" xml:space="preserve">
<style type="text/css">
	.st0{fill:#679AB4;}
	.st1{fill:#333E48;}
</style>
<g>
	<path class="st0" d="M46.3,251.6c-1.3,1.6-1.3,3.8-0.1,5.5c0.4,0.5,10.5,13.5,32.2,13.5c10.8,0,19.8-5,28.4-9.8
		c8.6-4.8,16.8-9.3,26.7-9.3c9.8,0,17.7,4.8,26.1,9.8c8.7,5.2,17.7,10.7,29,10.7c22.6,0,32.1-14.6,32.5-15.2c1-1.6,0.9-3.7-0.3-5.2
		c-21.5-26.4-53.3-41.6-87.3-41.6C99.6,210,67.8,225.1,46.3,251.6"/>
	<path class="st0" d="M28.3,281.9c-12.1,31.8-9.4,67,7.6,96.3c17,29.4,46,49.4,79.7,54.8c2,0.3,4-0.8,4.8-2.7
		c0.3-0.6,6.4-15.9-4.5-34.7c-5.4-9.4-14.2-14.6-22.7-19.6c-8.5-5.1-16.4-9.8-21.4-18.5c-4.9-8.5-4.7-17.7-4.5-27.5
		c0.2-10.2,0.4-20.7-5.3-30.4C50.7,279.9,33.3,279,32.6,279C30.7,278.9,29,280.1,28.3,281.9"/>
	<path class="st0" d="M234,279.3c-0.7,0.1-17,2.4-27.9,21.2c-5.4,9.4-5.5,19.6-5.7,29.5c-0.2,9.8-0.3,19.2-5.3,27.8
		c-4.9,8.5-13,12.9-21.6,17.7c-8.9,4.9-18.1,10-23.7,19.8c-4.7,8.1-6.1,15.5-6.1,21.4c0,8.5,2.8,13.9,3,14.3
		c0.9,1.7,2.7,2.6,4.6,2.3c33.6-5.4,62.7-25.4,79.6-54.8c17-29.3,19.8-64.5,7.6-96.3C238,280.2,236.1,279.1,234,279.3"/>
	<path class="st1" d="M545.1,238c0-2.1,1.9-3.8,4.2-3.8c2.3,0,4.2,1.7,4.2,3.8c0,2.1-1.9,3.8-4.2,3.8
		C547,241.8,545.1,240.1,545.1,238 M354.1,291.8c-2.3,0-4.2,1.7-4.2,3.8c0,2.1,1.9,3.8,4.2,3.8c2.3,0,4.2-1.7,4.2-3.8
		C358.3,293.5,356.4,291.8,354.1,291.8 M298.8,262.9c0,1.1-0.7,3.1-1.5,3.9c-2.9,2.7-8.5,3.3-13.1,2.9c-4.6-0.4-8.9-2.9-8.9-7.1
		c0-4.5,1.3-9,9.5-9.2h9.6c1.3,0,3.5-0.1,4.4-1V262.9z M390.9,249.4c-1.1,1-1.1,2.5-1,2.6l0,20.2c0,4-2.7,6.3-7.1,6.3l0,0l-23.6,0.1
		c-4.3,0-7.1-2.3-7.1-6.3h0v-30.1h-7.7l0,30.4c-0.2,3.8-2.9,6-7.1,6l-23.6,0.1c-5.7,0-6.9-2.2-7.1-6l0-30.4h-7.6l0,3.5
		c-0.7,1.2-2.9,1.4-5.1,1.4H285c-12.4,0.1-17.2,6.9-17.1,15.2c0.2,8.5,7.2,13.5,16.2,14.2c10.5,0.7,14.8-2.7,14.8-2.7v0.1
		c0,0-0.4,11.8,10.5,11.8h28.1c6.1,0,8.5-1.4,10.9-3.5c2.4,2.2,5.7,3.5,10.3,3.5l24.3,0c9.3,0,14.4-5,14.4-13.3v-23.8h-4
		C393.5,248.4,392,248.4,390.9,249.4 M393.7,234.2c-2.3,0-4.2,1.8-4.2,3.8c0,2.1,1.9,3.8,4.2,3.8c2.3,0,4.2-1.7,4.2-3.8
		C397.9,235.9,396.1,234.2,393.7,234.2 M422.7,278.4c-5.8,0-9.8-4.7-9.8-11.5c0-4,1.1-7,3.4-9.6c2-2.2,4.6-3.2,7.4-3.2
		c5.2,0,8.7,2.5,8.8,8.1c0,0,0.2,14.3,0.2,16.2H422.7z M423.8,248.4c-4.4,0-8.3,1.4-11.6,4.1c-4.4,3.5-6.6,8.5-6.7,14.9
		c0,5.3,1.5,9.5,4.5,12.8c3.1,3.6,7.1,5.3,12.2,5.3h9c-1.6,3.8-3.7,6-7.5,8.4c-5.5,3.5-13.9,4.7-13.9,4.7l3.1,6.7
		c0,0,11.5-0.8,20.2-9.6c5.5-5.5,7.2-11,7.2-19.7v-11.5C440.3,253.8,435,248.4,423.8,248.4 M612.7,285.5h8.1v-57.1h-8.1V285.5z
		 M503.4,273.4c0,0-9.6-7.7-11.6-9.6c-3.2-2.9-3.2-10,11.2-10c9.4,0,13.9,5.9,13.9,5.9L503.4,273.4z M597.8,229.4
		c-1.1,1-1.1,2.5-1.1,2.6v40.6c-0.1,3.8-2.9,6-7.1,6v0l-23.3,0c-4.3,0-7.2-2.4-7.2-6.4h0v-23.7v0v0h-4c-0.1,0-1.6-0.1-2.7,1
		c-1.1,1-1.1,2.5-1.1,2.6l0,20.2c0,3.9-3.7,6.2-7.9,6.3h-31.7c-1.8,0-2.8-1.1-2.8-1.1l17-17.5c0,0-5.4-11.7-23.7-11.7
		c-19.4,0-22.2,12.9-17.2,17.8c4.8,4.7,12.7,11,12.8,11.1c-1.7,1.7-6.4,1.2-14.5,1.2c0,0-18.5,0-20.9,0c-6.8,0-6.5-7.3-6.5-7.3
		v-42.7h-4c-0.1,0-1.6-0.1-2.7,0.9c-1.1,1-1.1,2.5-1.1,2.6v42.4c0,0,0.3,11.3,11.5,11.3h34.4c6.4,0,9.8-3.3,9.8-3.3
		c2.4,2.2,5.3,3.3,9.5,3.3l30,0c7.2,0,9.1-0.9,11.8-3.4l0,0c2.4,2.2,6,3.5,10.6,3.5l24.2,0c9.3,0,14.4-5.1,14.4-13.4v-43.7h-4
		C600.4,228.5,598.9,228.4,597.8,229.4 M561,241.8c2.3,0,4.2-1.7,4.2-3.8c0-2.1-1.9-3.8-4.2-3.8c-2.3,0-4.2,1.8-4.2,3.8
		C556.9,240.1,558.8,241.8,561,241.8 M342.4,291.8c-2.3,0-4.2,1.7-4.2,3.8c0,2.1,1.9,3.8,4.2,3.8c2.3,0,4.2-1.7,4.2-3.8
		C346.6,293.5,344.7,291.8,342.4,291.8 M294.7,235.7c2.3,0,4.2-1.7,4.2-3.8c0-2.1-1.9-3.8-4.2-3.8c-2.3,0-4.2,1.7-4.2,3.8
		C290.5,233.9,292.4,235.7,294.7,235.7 M282.9,235.7c2.3,0,4.2-1.7,4.2-3.8c0-2.1-1.9-3.8-4.2-3.8c-2.3,0-4.2,1.7-4.2,3.8
		C278.7,233.9,280.6,235.7,282.9,235.7 M342.7,398.9c0,1.1-0.6,2.6-1.5,3.3c-3.2,2.6-6.9,2.8-12,2.8c-4.5,0-9.4-2.6-9.4-6.8
		c0-4.3,4.8-7,9.3-7h9.3c1.3,0,2.9-0.3,4.2-0.8V398.9z M343.3,410.9h6.9v-31.5c0-8.4-8.8-12.8-17.4-12.8c-9.8,0-16.2,3.7-18.7,10.7
		l-0.2,0.4l7,2.2l0.1-0.3c1.9-5.3,7.3-6.4,11.6-6.4c4.9,0,10.1,1.9,10.1,6.2v4.3c-1.2,0.9-2.8,1.3-4.9,1.3h-8.6
		c-8.8-0.1-17,4.6-17,13.3c0,8.3,8.7,13.3,17,13.3c5.4,0,10.2-1.2,14.2-3.4C343.3,408.1,343.3,410.8,343.3,410.9 M612.8,398.9
		c0,1.1-0.6,2.6-1.5,3.3c-3.2,2.6-6.9,2.8-12,2.8c-4.5,0-9.4-2.6-9.4-6.8c0-4.3,4.8-7,9.3-7h9.3c1.3,0,2.9-0.3,4.2-0.8V398.9z
		 M613.4,410.9h6.9v-31.5c0-8.4-8.8-12.8-17.4-12.8c-9.8,0-16.2,3.7-18.7,10.7l-0.2,0.4l7,2.2l0.1-0.3c1.9-5.3,7.3-6.4,11.5-6.4
		c4.9,0,10.1,1.9,10.1,6.2v4.3c-1.2,0.9-2.8,1.3-4.9,1.3h-8.6c-8.8-0.1-17,4.6-17,13.3c0,8.3,8.7,13.3,17,13.3
		c5.4,0,10.2-1.2,14.2-3.4C613.4,408.1,613.4,410.8,613.4,410.9 M320.2,353.6h-52.3v6.8h22.3v50.5h8v-50.5h22.3v-6.8H320.2z
		 M574.8,368.1c-1.5,0.8-1.9,2.5-2,2.5c0,0-11,25.7-13,30.5c-0.7-1.6-14.2-33.7-14.2-33.7h-8.1c0,0,18.1,42.8,18.2,43.1
		c-0.1,0.3-3.6,8.2-3.6,8.2c-1.6,3.8-3.6,5-8,5l-2.4-0.1l-0.1,6.7h3.4c6.7,0.1,11.7-3.1,14.3-9.1l23.2-53.7h-4.6
		C577.8,367.4,576.2,367.3,574.8,368.1 M525.2,368.3c-1.1,1-1.1,2.5-1.1,2.6v39.9h7.7v-43.4h-4C527.8,367.4,526.3,367.3,525.2,368.3
		 M523.8,357.1c0,2.1,1.9,3.8,4.2,3.8c2.3,0,4.2-1.7,4.2-3.8c0-2.1-1.9-3.8-4.2-3.8C525.7,353.2,523.8,355,523.8,357.1 M484.5,371.1
		v-3.7h-7.6v43.4h7.6v-26.7c0-6.2,5.2-10.8,12-10.8c10.7,0,12.8,5,12.8,12.4v25.2h7.5v-25.6c0-12.3-6.9-18.6-20.4-18.6
		C492,366.7,487.5,368.4,484.5,371.1 M463.6,368.4c-1.1,1.1-1.1,2.6-1.1,2.6v24.8c0,6-6.2,9.2-12,9.2c-10.7,0-12.9-5.1-12.9-12.8
		v-24.8H430v24.8c0,13.4,6.3,19.3,20.5,19.3c4.4,0,8.8-1.3,12-3.6v2.9h7.6v-43.4h-4C466.1,367.4,464.7,367.3,463.6,368.4
		 M425.2,367.4h-3.6c-0.1,0-2,0.1-3.3,0.8c-1.3,0.8-1.8,2.6-1.8,2.6c0,0-8.9,23.8-10.7,28.6c-0.7-1.7-13.5-32.1-13.5-32.1h-7.1
		c0,0-12.7,30.4-13.4,32.1c-0.6-1.7-11.8-32.1-11.8-32.1H352l16,43.4h7.2c0,0,12.9-30.9,13.6-32.5c0.7,1.6,13.6,32.5,13.6,32.5h7.2
		l16.2-43.4H425.2z"/>
</g>
</svg>
